#VRML V2.0 utf8
# Maximum-size assembly envelope, not vendor STEP. Green stripe = cathode.
Shape { appearance Appearance { material Material { diffuseColor 0.9 0.65 0.06 } } geometry IndexedFaceSet { solid TRUE coord Coordinate { point [ -0.413385827 -0.265748031 0.000000000,0.342519685 -0.265748031 0.000000000,0.342519685 0.265748031 0.000000000,-0.413385827 0.265748031 0.000000000,-0.413385827 -0.265748031 0.374015748,0.342519685 -0.265748031 0.374015748,0.342519685 0.265748031 0.374015748,-0.413385827 0.265748031 0.374015748 ] } coordIndex [ 0,3,2,-1,0,2,1,-1,4,5,6,-1,4,6,7,-1,0,1,5,-1,0,5,4,-1,1,2,6,-1,1,6,5,-1,2,3,7,-1,2,7,6,-1,3,0,4,-1,3,4,7,-1 ] } }
Shape { appearance Appearance { material Material { diffuseColor 0.08 0.72 0.14 } } geometry IndexedFaceSet { solid TRUE coord Coordinate { point [ 0.342519685 -0.265748031 0.000000000,0.413385827 -0.265748031 0.000000000,0.413385827 0.265748031 0.000000000,0.342519685 0.265748031 0.000000000,0.342519685 -0.265748031 0.374015748,0.413385827 -0.265748031 0.374015748,0.413385827 0.265748031 0.374015748,0.342519685 0.265748031 0.374015748 ] } coordIndex [ 0,3,2,-1,0,2,1,-1,4,5,6,-1,4,6,7,-1,0,1,5,-1,0,5,4,-1,1,2,6,-1,1,6,5,-1,2,3,7,-1,2,7,6,-1,3,0,4,-1,3,4,7,-1 ] } }
