#VRML V2.0 utf8
# Dimensioned maximum envelope, not vendor STEP; mm/2.54
Transform { translation 0 0 0.19685039370078738 children [ Shape { appearance Appearance { material Material { diffuseColor .12 .12 .14 } } geometry Box { size 4.133858267716535 4.133858267716535 0.39370078740157477 } } ] }
Shape { appearance Appearance { material Material { diffuseColor .65 .65 .69 } } geometry IndexedFaceSet { solid TRUE creaseAngle 0.3 coord Coordinate { point [
2.066929134 0.000000000 0.393700787,
2.056976305 0.202594483 0.393700787,
2.027213670 0.403237870 0.393700787,
1.977927859 0.599997857 0.393700787,
1.909593522 0.790979535 0.393700787,
1.822868755 0.974343649 0.393700787,
1.718588766 1.148324301 0.393700787,
1.597757827 1.311245961 0.393700787,
1.461539607 1.461539607 0.393700787,
1.311245961 1.597757827 0.393700787,
1.148324301 1.718588766 0.393700787,
0.974343649 1.822868755 0.393700787,
0.790979535 1.909593522 0.393700787,
0.599997857 1.977927859 0.393700787,
0.403237870 2.027213670 0.393700787,
0.202594483 2.056976305 0.393700787,
0.000000000 2.066929134 0.393700787,
-0.202594483 2.056976305 0.393700787,
-0.403237870 2.027213670 0.393700787,
-0.599997857 1.977927859 0.393700787,
-0.790979535 1.909593522 0.393700787,
-0.974343649 1.822868755 0.393700787,
-1.148324301 1.718588766 0.393700787,
-1.311245961 1.597757827 0.393700787,
-1.461539607 1.461539607 0.393700787,
-1.597757827 1.311245961 0.393700787,
-1.718588766 1.148324301 0.393700787,
-1.822868755 0.974343649 0.393700787,
-1.909593522 0.790979535 0.393700787,
-1.977927859 0.599997857 0.393700787,
-2.027213670 0.403237870 0.393700787,
-2.056976305 0.202594483 0.393700787,
-2.066929134 0.000000000 0.393700787,
-2.056976305 -0.202594483 0.393700787,
-2.027213670 -0.403237870 0.393700787,
-1.977927859 -0.599997857 0.393700787,
-1.909593522 -0.790979535 0.393700787,
-1.822868755 -0.974343649 0.393700787,
-1.718588766 -1.148324301 0.393700787,
-1.597757827 -1.311245961 0.393700787,
-1.461539607 -1.461539607 0.393700787,
-1.311245961 -1.597757827 0.393700787,
-1.148324301 -1.718588766 0.393700787,
-0.974343649 -1.822868755 0.393700787,
-0.790979535 -1.909593522 0.393700787,
-0.599997857 -1.977927859 0.393700787,
-0.403237870 -2.027213670 0.393700787,
-0.202594483 -2.056976305 0.393700787,
-0.000000000 -2.066929134 0.393700787,
0.202594483 -2.056976305 0.393700787,
0.403237870 -2.027213670 0.393700787,
0.599997857 -1.977927859 0.393700787,
0.790979535 -1.909593522 0.393700787,
0.974343649 -1.822868755 0.393700787,
1.148324301 -1.718588766 0.393700787,
1.311245961 -1.597757827 0.393700787,
1.461539607 -1.461539607 0.393700787,
1.597757827 -1.311245961 0.393700787,
1.718588766 -1.148324301 0.393700787,
1.822868755 -0.974343649 0.393700787,
1.909593522 -0.790979535 0.393700787,
1.977927859 -0.599997857 0.393700787,
2.027213670 -0.403237870 0.393700787,
2.056976305 -0.202594483 0.393700787,
2.066929134 0.000000000 5.039370079,
2.056976305 0.202594483 5.039370079,
2.027213670 0.403237870 5.039370079,
1.977927859 0.599997857 5.039370079,
1.909593522 0.790979535 5.039370079,
1.822868755 0.974343649 5.039370079,
1.718588766 1.148324301 5.039370079,
1.597757827 1.311245961 5.039370079,
1.461539607 1.461539607 5.039370079,
1.311245961 1.597757827 5.039370079,
1.148324301 1.718588766 5.039370079,
0.974343649 1.822868755 5.039370079,
0.790979535 1.909593522 5.039370079,
0.599997857 1.977927859 5.039370079,
0.403237870 2.027213670 5.039370079,
0.202594483 2.056976305 5.039370079,
0.000000000 2.066929134 5.039370079,
-0.202594483 2.056976305 5.039370079,
-0.403237870 2.027213670 5.039370079,
-0.599997857 1.977927859 5.039370079,
-0.790979535 1.909593522 5.039370079,
-0.974343649 1.822868755 5.039370079,
-1.148324301 1.718588766 5.039370079,
-1.311245961 1.597757827 5.039370079,
-1.461539607 1.461539607 5.039370079,
-1.597757827 1.311245961 5.039370079,
-1.718588766 1.148324301 5.039370079,
-1.822868755 0.974343649 5.039370079,
-1.909593522 0.790979535 5.039370079,
-1.977927859 0.599997857 5.039370079,
-2.027213670 0.403237870 5.039370079,
-2.056976305 0.202594483 5.039370079,
-2.066929134 0.000000000 5.039370079,
-2.056976305 -0.202594483 5.039370079,
-2.027213670 -0.403237870 5.039370079,
-1.977927859 -0.599997857 5.039370079,
-1.909593522 -0.790979535 5.039370079,
-1.822868755 -0.974343649 5.039370079,
-1.718588766 -1.148324301 5.039370079,
-1.597757827 -1.311245961 5.039370079,
-1.461539607 -1.461539607 5.039370079,
-1.311245961 -1.597757827 5.039370079,
-1.148324301 -1.718588766 5.039370079,
-0.974343649 -1.822868755 5.039370079,
-0.790979535 -1.909593522 5.039370079,
-0.599997857 -1.977927859 5.039370079,
-0.403237870 -2.027213670 5.039370079,
-0.202594483 -2.056976305 5.039370079,
-0.000000000 -2.066929134 5.039370079,
0.202594483 -2.056976305 5.039370079,
0.403237870 -2.027213670 5.039370079,
0.599997857 -1.977927859 5.039370079,
0.790979535 -1.909593522 5.039370079,
0.974343649 -1.822868755 5.039370079,
1.148324301 -1.718588766 5.039370079,
1.311245961 -1.597757827 5.039370079,
1.461539607 -1.461539607 5.039370079,
1.597757827 -1.311245961 5.039370079,
1.718588766 -1.148324301 5.039370079,
1.822868755 -0.974343649 5.039370079,
1.909593522 -0.790979535 5.039370079,
1.977927859 -0.599997857 5.039370079,
2.027213670 -0.403237870 5.039370079,
2.056976305 -0.202594483 5.039370079
] } coordIndex [
0, 1, 65, 64, -1,
1, 2, 66, 65, -1,
2, 3, 67, 66, -1,
3, 4, 68, 67, -1,
4, 5, 69, 68, -1,
5, 6, 70, 69, -1,
6, 7, 71, 70, -1,
7, 8, 72, 71, -1,
8, 9, 73, 72, -1,
9, 10, 74, 73, -1,
10, 11, 75, 74, -1,
11, 12, 76, 75, -1,
12, 13, 77, 76, -1,
13, 14, 78, 77, -1,
14, 15, 79, 78, -1,
15, 16, 80, 79, -1,
16, 17, 81, 80, -1,
17, 18, 82, 81, -1,
18, 19, 83, 82, -1,
19, 20, 84, 83, -1,
20, 21, 85, 84, -1,
21, 22, 86, 85, -1,
22, 23, 87, 86, -1,
23, 24, 88, 87, -1,
24, 25, 89, 88, -1,
25, 26, 90, 89, -1,
26, 27, 91, 90, -1,
27, 28, 92, 91, -1,
28, 29, 93, 92, -1,
29, 30, 94, 93, -1,
30, 31, 95, 94, -1,
31, 32, 96, 95, -1,
32, 33, 97, 96, -1,
33, 34, 98, 97, -1,
34, 35, 99, 98, -1,
35, 36, 100, 99, -1,
36, 37, 101, 100, -1,
37, 38, 102, 101, -1,
38, 39, 103, 102, -1,
39, 40, 104, 103, -1,
40, 41, 105, 104, -1,
41, 42, 106, 105, -1,
42, 43, 107, 106, -1,
43, 44, 108, 107, -1,
44, 45, 109, 108, -1,
45, 46, 110, 109, -1,
46, 47, 111, 110, -1,
47, 48, 112, 111, -1,
48, 49, 113, 112, -1,
49, 50, 114, 113, -1,
50, 51, 115, 114, -1,
51, 52, 116, 115, -1,
52, 53, 117, 116, -1,
53, 54, 118, 117, -1,
54, 55, 119, 118, -1,
55, 56, 120, 119, -1,
56, 57, 121, 120, -1,
57, 58, 122, 121, -1,
58, 59, 123, 122, -1,
59, 60, 124, 123, -1,
60, 61, 125, 124, -1,
61, 62, 126, 125, -1,
62, 63, 127, 126, -1,
63, 0, 64, 127, -1,
63, 62, 61, 60, 59, 58, 57, 56, 55, 54, 53, 52, 51, 50, 49, 48, 47, 46, 45, 44, 43, 42, 41, 40, 39, 38, 37, 36, 35, 34, 33, 32, 31, 30, 29, 28, 27, 26, 25, 24, 23, 22, 21, 20, 19, 18, 17, 16, 15, 14, 13, 12, 11, 10, 9, 8, 7, 6, 5, 4, 3, 2, 1, 0, -1,
64, 65, 66, 67, 68, 69, 70, 71, 72, 73, 74, 75, 76, 77, 78, 79, 80, 81, 82, 83, 84, 85, 86, 87, 88, 89, 90, 91, 92, 93, 94, 95, 96, 97, 98, 99, 100, 101, 102, 103, 104, 105, 106, 107, 108, 109, 110, 111, 112, 113, 114, 115, 116, 117, 118, 119, 120, 121, 122, 123, 124, 125, 126, 127, -1
] } }
