#VRML V2.0 utf8
# 3D model generated by easyeda2kicad.py (https://github.com/uPesy/easyeda2kicad.py)

Shape{
    appearance Appearance {
        material  Material 	{
            diffuseColor 0.8509803921568627 0.8509803921568627 0.8509803921568627
            specularColor 0.4235294117647059 0.4235294117647059 0.4235294117647059
            ambientIntensity 0.851
            transparency 0.0
            shininess 0.5
        }
    }
    geometry IndexedFaceSet {
        ccw TRUE
        solid FALSE
        coord DEF co Coordinate {
            point [
                0.0537 0.043 0.0, 0.0614 0.0421 0.0, 0.0367 -0.0161 0.0, 0.0353 -0.0153 0.0, 0.0353 -0.024 0.0, 0.0276 -0.0285 0.0, 1.0441 0.051 0.0, 1.0441 -0.0277 0.0, 0.8189 0.051 0.0, 0.8189 -0.0277 0.0, 0.1811 0.9646 0.0, 0.0276 0.9646 0.0, 0.6811 1.2008 0.0, 0.8189 1.2008 0.0, 0.6811 0.9646 0.0, 0.3189 0.9646 0.0, 0.3189 1.2008 0.0, 0.1811 1.2008 0.0, 0.0673 0.04 0.0, 0.0728 0.0364 0.0, 0.0775 0.0311 0.0, 0.0833 0.0105 0.0, 0.0825 0.002 0.0, 0.0803 -0.0048 0.0, 0.0628 -0.0195 0.0, 0.0555 -0.0204 0.0, 0.0685 -0.0174 0.0, 0.0734 -0.0142 0.0, 0.0771 -0.0103 0.0, 0.045 -0.0192 0.0, 0.0743 -0.0254 0.0, 0.1006 -0.028 0.0, 0.0666 -0.028 0.0, 0.0616 -0.0285 0.0, 0.0808 0.025 0.0, 0.0829 0.0166 0.0, 0.0441 0.0418 0.0, 0.0353 0.038 0.0, 0.0353 0.0485 0.0, 0.0897 0.03 0.0, 0.0851 0.0373 0.0, 0.1303 0.0507 0.0, 0.1409 0.0507 0.0, 0.1409 -0.028 0.0, 0.8189 -0.0285 0.0, 0.0806 -0.0213 0.0, 0.0865 -0.0151 0.0, 0.1006 -0.0194 0.0, 0.0907 -0.0076 0.0, 0.1303 -0.0194 0.0, 0.0779 0.0442 0.0, 0.0705 0.0485 0.0, 0.0617 0.051 0.0, 0.0931 0.0007 0.0, 0.0938 0.0098 0.0, 0.0927 0.021 0.0, 0.0538 0.0517 0.0, 0.0444 0.051 0.0, 0.0436 -0.0274 0.0, 0.0516 -0.0285 0.0, 0.0276 -0.4626 0.0, 0.0548 -0.029 0.0, 0.8189 -0.4626 0.0, 0.0569 -0.029 0.0, 0.0199 0.0507 0.0, -0.1811 0.9646 0.0, -0.1069 -0.028 0.0, -0.0972 -0.0065 0.0, -0.0927 -0.0135 0.0, -0.3189 0.9646 0.0, -0.3189 1.2008 0.0, -0.1811 1.2008 0.0, -0.0204 0.0421 0.0, 0.0093 0.0421 0.0, 0.0093 0.0161 0.0, -0.0377 0.0507 0.0, -0.0185 0.0161 0.0, -0.0377 -0.028 0.0, -0.0185 0.0075 0.0, -0.0862 -0.0197 0.0, -0.078 -0.0245 0.0, -0.0689 -0.0272 0.0, -0.6811 0.9646 0.0, -0.0204 0.0507 0.0, -1.0441 -0.0277 0.0, -1.0441 0.051 0.0, -0.8189 -0.0277 0.0, -0.8189 0.051 0.0, -0.8189 1.2008 0.0, -0.6811 1.2008 0.0, -0.1779 -0.028 0.0, -0.1664 -0.028 0.0, -0.0591 -0.028 0.0, -0.0599 0.0507 0.0, -0.0713 0.0495 0.0, -0.0805 0.0462 0.0, -0.0891 0.0405 0.0, -0.1366 0.0507 0.0, -0.0948 0.0343 0.0, -0.0984 0.0275 0.0, 0.0093 0.0075 0.0, 0.0093 -0.0194 0.0, -0.0224 -0.0194 0.0, -0.0224 -0.028 0.0, 0.0199 -0.028 0.0, -0.0892 0.0404 0.0, -0.1005 0.0197 0.0, -0.1011 0.0123 0.0, -0.1 0.0018 0.0, -0.1584 -0.006 0.0, -0.1259 -0.006 0.0, -0.1184 -0.028 0.0, -0.8189 -0.4626 0.0, -0.8189 -0.0285 0.0, -0.1472 0.0507 0.0
            ]
        }
        coordIndex [
            0,1,2,-1,3,4,5,-1,6,7,8,-1,8,7,9,-1,8,9,10,-1,10,9,11,-1,12,13,14,-1,14,13,8,-1,14,8,15,-1,15,8,10,-1,15,10,16,-1,16,10,17,-1,1,18,2,-1,2,18,19,-1,2,19,20,-1,21,22,2,-1,2,22,23,-1,24,25,26,-1,26,25,27,-1,23,28,2,-1,2,28,27,-1,2,27,29,-1,29,27,25,-1,30,31,32,-1,32,31,33,-1,20,34,2,-1,2,34,35,-1,2,35,21,-1,0,2,36,-1,36,2,3,-1,36,3,37,-1,37,3,11,-1,37,11,38,-1,39,40,41,-1,41,40,11,-1,41,11,42,-1,42,11,9,-1,42,9,43,-1,43,9,44,-1,30,45,31,-1,31,45,46,-1,31,46,47,-1,47,46,48,-1,47,48,49,-1,40,50,11,-1,11,50,51,-1,11,51,52,-1,48,53,49,-1,49,53,54,-1,49,54,41,-1,41,54,55,-1,41,55,39,-1,52,56,11,-1,11,56,57,-1,11,57,38,-1,4,58,5,-1,5,58,59,-1,5,59,60,-1,60,59,61,-1,60,61,62,-1,62,61,63,-1,62,63,44,-1,44,63,33,-1,44,33,43,-1,43,33,31,-1,3,5,11,-1,11,5,64,-1,11,64,65,-1,66,67,68,-1,69,70,71,-1,72,73,74,-1,75,76,77,-1,77,76,78,-1,68,79,66,-1,66,79,80,-1,66,80,81,-1,71,65,69,-1,69,65,64,-1,69,64,82,-1,82,64,83,-1,82,83,72,-1,84,85,86,-1,86,85,87,-1,86,87,82,-1,82,87,88,-1,82,88,89,-1,90,91,5,-1,5,92,77,-1,74,76,72,-1,72,76,75,-1,72,75,82,-1,82,75,93,-1,93,94,82,-1,82,94,95,-1,82,95,96,-1,97,98,99,-1,100,101,78,-1,78,101,102,-1,78,102,77,-1,77,102,103,-1,77,103,5,-1,5,103,104,-1,5,104,64,-1,98,97,105,-1,99,106,97,-1,97,106,107,-1,97,107,66,-1,66,107,108,-1,66,108,67,-1,109,110,91,-1,91,110,111,-1,91,111,5,-1,5,111,66,-1,5,66,92,-1,92,66,81,-1,60,112,5,-1,5,112,113,-1,5,113,90,-1,90,113,86,-1,90,86,114,-1,114,86,82,-1,114,82,97,-1,97,82,96,-1,97,96,105,-1,
        ]
    }
}
Shape{
    appearance Appearance {
        material  Material 	{
            diffuseColor 0.25098039215686274 0.25098039215686274 0.25098039215686274
            specularColor 0.12549019607843137 0.12549019607843137 0.12549019607843137
            ambientIntensity 0.251
            transparency 0.0
            shininess 0.5
        }
    }
    geometry IndexedFaceSet {
        ccw TRUE
        solid FALSE
        coord DEF co Coordinate {
            point [
                0.3189 0.9646 0.0039, 0.3189 1.1024 0.0039, 0.6811 0.9646 0.0039, 0.6811 1.1024 0.0039, -0.1811 0.9646 0.0039, -0.1811 1.1024 0.0039, 0.1811 0.9646 0.0039, 0.1811 1.1024 0.0039, -0.6811 0.9646 0.0039, -0.6811 1.1024 0.0039, -0.3189 0.9646 0.0039, -0.3189 1.1024 0.0039, -0.8189 0.051 0.0039, -1.0228 0.051 0.0039, -0.8189 1.1024 0.0039, -1.0228 1.063 0.0039, -0.9835 1.1024 0.0039, -1.0176 1.0827 0.0039, -1.0113 1.0908 0.0039, -1.0031 1.0971 0.0039, -1.0215 1.0732 0.0039, -0.9937 1.101 0.0039, -1.0228 -1.063 0.0039, -1.0228 -0.0277 0.0039, -0.8189 -0.0277 0.0039, 0.8189 -0.4626 0.0039, 0.8189 -0.9646 0.0039, -0.8189 -0.4626 0.0039, 0.6811 -0.9646 0.0039, 1.0191 -1.0827 0.0039, 1.0129 -1.0908 0.0039, 1.0047 -1.0971 0.0039, 0.1811 -0.9646 0.0039, 0.3189 -0.9646 0.0039, 0.3189 -1.1024 0.0039, 0.6811 -1.1024 0.0039, 0.8189 -0.0277 0.0039, 1.0244 -0.0277 0.0039, 1.0244 -1.063 0.0039, 1.0231 -1.0732 0.0039, 0.9952 -1.101 0.0039, 0.985 -1.1024 0.0039, 0.8189 -1.1024 0.0039, -0.3189 -0.9646 0.0039, -0.3189 -1.1024 0.0039, -0.6811 -1.1024 0.0039, -0.6811 -0.9646 0.0039, -0.8189 -0.9646 0.0039, -0.1811 -0.9646 0.0039, -0.1811 -1.1024 0.0039, 0.1811 -1.1024 0.0039, -0.8189 -1.1024 0.0039, -0.9835 -1.1024 0.0039, -0.9937 -1.101 0.0039, -1.0031 -1.0971 0.0039, -1.0113 -1.0908 0.0039, -1.0176 -1.0827 0.0039, -1.0215 -1.0732 0.0039, 0.8189 0.051 0.0039, 0.8189 1.1024 0.0039, 1.0244 0.051 0.0039, 0.985 1.1024 0.0039, 1.0244 1.063 0.0039, 1.0234 1.0718 0.0039, 1.0096 1.0938 0.0039, 1.0021 1.0985 0.0039, 0.9938 1.1014 0.0039, 1.0158 1.0875 0.0039, 1.0205 1.0801 0.0039, 1.0244 0.051 0.0787, 1.0244 1.063 0.0827, 1.0244 -0.0277 0.0787, 1.0244 -1.063 0.0827, -1.0228 1.063 0.0827, -1.0228 -0.0277 0.0787, -1.0228 0.051 0.0787, -1.0228 -1.063 0.0827, 0.3189 -1.1024 0.0787, 0.985 -1.1024 0.0827, 0.1811 -1.1024 0.0787, -0.9835 -1.1024 0.0827, -0.8189 -1.1024 0.0787, -0.6811 -1.1024 0.0787, -0.1811 -1.1024 0.0787, 0.8189 -1.1024 0.0787, 0.6811 -1.1024 0.0787, -0.3189 -1.1024 0.0787, 0.1811 1.1024 0.0787, -0.1811 1.1024 0.0787, 0.985 1.1024 0.0827, 0.8189 1.1024 0.0787, 0.6811 1.1024 0.0787, 0.3189 1.1024 0.0787, -0.9835 1.1024 0.0827, -0.3189 1.1024 0.0787, -0.8189 1.1024 0.0787, -0.6811 1.1024 0.0787, -0.7571 -0.8925 0.3976, -0.7594 -0.9103 0.3976, 0.9503 -1.0282 0.3976, -0.7663 -0.9269 0.3976, -0.7773 -0.9412 0.3976, -0.7915 -0.9521 0.3976, -0.8082 -0.959 0.3976, -0.9487 -1.0282 0.3976, -0.826 -0.9614 0.3976, -0.8438 -0.959 0.3976, -0.8604 -0.9521 0.3976, -0.8747 -0.9412 0.3976, -0.8857 -0.9269 0.3976, -0.8925 -0.9103 0.3976, -0.8949 -0.8925 0.3976, -0.8925 -0.8746 0.3976, -0.9487 1.0282 0.3976, -0.8857 -0.858 0.3976, -0.8747 -0.8438 0.3976, -0.8604 -0.8328 0.3976, -0.8438 -0.8259 0.3976, -0.7915 -0.8328 0.3976, 0.9503 1.0282 0.3976, -0.8082 -0.8259 0.3976, -0.826 -0.8236 0.3976, -0.7773 -0.8438 0.3976, -0.7663 -0.858 0.3976, -0.7594 -0.8746 0.3976, -0.9838 1.1024 0.0827, -0.9487 1.0673 0.3632, 0.9503 1.0673 0.3632, 0.9853 1.1024 0.0827, -1.0228 -1.0633 0.0827, -0.9878 -1.0282 0.3632, -0.9878 1.0282 0.3632, -1.0228 1.0633 0.0827, 1.0244 1.0633 0.0827, 0.9894 1.0282 0.3632, 0.9894 -1.0282 0.3632, 1.0244 -1.0633 0.0827, 0.9853 -1.1024 0.0827, 0.9503 -1.0673 0.3632, -0.9487 -1.0673 0.3632, -0.9838 -1.1024 0.0827, 0.9952 -1.101 0.0832, 0.9954 -1.101 0.0832, 1.0047 -1.0971 0.0836, 1.0048 -1.097 0.0836, 1.0129 -1.0908 0.0837, 1.0191 -1.0828 0.0836, 1.0191 -1.0827 0.0836, 1.023 -1.0734 0.0832, 1.023 -1.0732 0.0832, -1.0215 -1.0732 0.0832, -1.0214 -1.0734 0.0832, -1.0175 -1.0827 0.0836, -1.0175 -1.0828 0.0836, -1.0113 -1.0908 0.0837, -1.0032 -1.097 0.0836, -1.0031 -1.0971 0.0836, -0.9938 -1.101 0.0832, -0.9937 -1.101 0.0832, 0.9879 -1.0383 0.3642, 0.9879 -1.0383 0.3642, 0.9839 -1.0476 0.3649, 0.9839 -1.0476 0.3649, 0.9777 -1.0557 0.3651, 0.9697 -1.0618 0.3649, 0.9696 -1.0619 0.3649, 0.9604 -1.0658 0.3642, 0.9603 -1.0658 0.3642, -0.9487 -1.0651 0.3721, 0.9503 -1.0651 0.3721, -0.9487 -1.065 0.3723, 0.9503 -1.065 0.3723, -0.9487 -1.0607 0.3805, 0.9503 -1.0607 0.3805, -0.9487 -1.0606 0.3807, 0.9503 -1.0606 0.3807, -0.9487 -1.0544 0.3877, 0.9503 -1.0544 0.3877, -0.9487 -1.0543 0.3878, 0.9503 -1.0543 0.3878, -0.9487 -1.0466 0.3931, 0.9503 -1.0466 0.3931, -0.9487 -1.0465 0.3931, 0.9503 -1.0465 0.3931, -0.9487 -1.0377 0.3965, 0.9503 -1.0377 0.3965, -0.9487 -1.0376 0.3965, 0.9503 -1.0376 0.3965, -0.9587 -1.0658 0.3642, -0.9588 -1.0658 0.3642, -0.9681 -1.0619 0.3649, -0.9681 -1.0618 0.3649, -0.9761 -1.0557 0.3651, -0.9823 -1.0476 0.3649, -0.9823 -1.0476 0.3649, -0.9863 -1.0383 0.3642, -0.9863 -1.0383 0.3642, 1.0232 1.0717 0.0831, 1.023 1.0734 0.0832, 1.0203 1.08 0.0835, 1.0191 1.0828 0.0836, 1.0156 1.0873 0.0836, 1.0129 1.0908 0.0837, 1.0094 1.0935 0.0836, 1.0048 1.097 0.0836, 1.002 1.0982 0.0835, 0.9954 1.101 0.0832, 0.9938 1.1012 0.0831, 0.9826 -1.0282 0.3807, 0.9765 -1.0282 0.3877, 0.9756 -1.035 0.3877, 0.968 -1.033 0.3931, 0.9594 -1.0307 0.3965, 0.9585 -1.033 0.3965, 0.955 -1.0364 0.3965, 0.957 -1.0349 0.3965, 0.9527 -1.0374 0.3965, 0.9597 -1.0282 0.3965, 0.9859 -1.0378 0.3721, 0.9822 -1.0467 0.3721, 0.9764 -1.0543 0.3721, 0.9687 -1.0602 0.3721, 0.9598 -1.0639 0.3721, 0.9763 -1.0282 0.3878, 0.9686 -1.0282 0.3931, 0.9685 -1.0282 0.3931, 0.9597 -1.0282 0.3965, 0.9662 -1.0374 0.3931, 0.9633 -1.0412 0.3931, 0.9595 -1.0441 0.3931, 0.955 -1.046 0.3931, 0.973 -1.0413 0.3877, 0.9688 -1.0468 0.3877, 0.9634 -1.0509 0.3877, 0.9571 -1.0535 0.3877, 0.987 -1.0282 0.3723, 0.9828 -1.0282 0.3805, 0.9817 -1.0366 0.3805, 0.9784 -1.0445 0.3805, 0.9732 -1.0512 0.3805, 0.9665 -1.0564 0.3805, 0.9587 -1.0596 0.3805, 0.9872 -1.0282 0.3721, -0.9555 -1.0535 0.3877, -0.9535 -1.046 0.3931, -0.9512 -1.0374 0.3965, -0.9534 -1.0364 0.3965, -0.9569 -1.033 0.3965, -0.9554 -1.0349 0.3965, -0.9578 -1.0307 0.3965, -0.9583 -1.0639 0.3721, -0.9671 -1.0602 0.3721, -0.9748 -1.0543 0.3721, -0.9806 -1.0467 0.3721, -0.9843 -1.0378 0.3721, -0.9856 -1.0282 0.3721, -0.9581 -1.0282 0.3965, -0.9579 -1.0441 0.3931, -0.9617 -1.0412 0.3931, -0.9646 -1.0374 0.3931, -0.9664 -1.033 0.3931, -0.9582 -1.0282 0.3965, -0.967 -1.0282 0.3931, -0.9671 -1.0282 0.3931, -0.9748 -1.0282 0.3878, -0.9618 -1.0509 0.3877, -0.9672 -1.0468 0.3877, -0.9714 -1.0413 0.3877, -0.974 -1.035 0.3877, -0.9571 -1.0596 0.3805, -0.9649 -1.0564 0.3805, -0.9717 -1.0512 0.3805, -0.9768 -1.0445 0.3805, -0.9801 -1.0366 0.3805, -0.9749 -1.0282 0.3877, -0.981 -1.0282 0.3807, -0.9812 -1.0282 0.3805, -0.9855 -1.0282 0.3723, -0.9937 1.101 0.0832, -0.9938 1.101 0.0832, -1.0031 1.0971 0.0836, -1.0032 1.097 0.0836, -1.0113 1.0908 0.0837, -1.0175 1.0828 0.0836, -1.0175 1.0827 0.0836, -1.0214 1.0734 0.0832, -1.0215 1.0732 0.0832, 0.9881 1.0369 0.3641, 0.9879 1.0383 0.3642, 0.985 1.045 0.3647, 0.9839 1.0476 0.3649, 0.9803 1.0522 0.365, 0.9777 1.0557 0.3651, 0.9743 1.0583 0.365, 0.9696 1.0619 0.3649, 0.967 1.063 0.3647, 0.9603 1.0658 0.3642, 0.9589 1.066 0.3641, 0.9872 1.0282 0.3721, 0.987 1.0282 0.3723, 0.9828 1.0282 0.3805, 0.9826 1.0282 0.3807, 0.9765 1.0282 0.3877, 0.9763 1.0282 0.3878, 0.9686 1.0282 0.3931, 0.9685 1.0282 0.3931, 0.9597 1.0282 0.3965, 0.9597 1.0282 0.3965, -0.9856 1.0282 0.3721, -0.9855 1.0282 0.3723, -0.9812 1.0282 0.3805, -0.981 1.0282 0.3807, -0.9749 1.0282 0.3877, -0.9748 1.0282 0.3878, -0.9671 1.0282 0.3931, -0.967 1.0282 0.3931, -0.9582 1.0282 0.3965, -0.9581 1.0282 0.3965, -0.9865 1.0369 0.3641, -0.9863 1.0383 0.3642, -0.9835 1.045 0.3647, -0.9823 1.0476 0.3649, -0.9788 1.0522 0.365, -0.9574 1.066 0.3641, -0.9587 1.0658 0.3642, -0.9655 1.063 0.3647, -0.9681 1.0619 0.3649, -0.9727 1.0583 0.365, -0.9761 1.0557 0.3651, 0.9503 1.065 0.3723, 0.9503 1.0607 0.3805, 0.9575 1.0599 0.3805, 0.9503 1.0606 0.3807, 0.9503 1.0544 0.3877, 0.9561 1.0538 0.3877, 0.9544 1.0461 0.3931, 0.9524 1.0375 0.3965, 0.9544 1.0368 0.3965, 0.9588 1.0323 0.3965, 0.9577 1.0341 0.3965, 0.9595 1.0303 0.3965, 0.9503 1.0376 0.3965, 0.9585 1.0642 0.3721, 0.9663 1.0615 0.3721, 0.9733 1.0571 0.3721, 0.9791 1.0512 0.3721, 0.9835 1.0442 0.3721, 0.9862 1.0364 0.3721, 0.9503 1.0543 0.3878, 0.9503 1.0466 0.3931, 0.9503 1.0465 0.3931, 0.9503 1.0377 0.3965, 0.9617 1.0426 0.3931, 0.9646 1.0397 0.3931, 0.9668 1.0362 0.3931, 0.9682 1.0323 0.3931, 0.9582 1.0448 0.3931, 0.9562 1.0356 0.3965, 0.9616 1.0518 0.3877, 0.9666 1.0487 0.3877, 0.9708 1.0446 0.3877, 0.9739 1.0396 0.3877, 0.9758 1.0341 0.3877, 0.9644 1.0575 0.3805, 0.9705 1.0536 0.3805, 0.9757 1.0485 0.3805, 0.9795 1.0423 0.3805, 0.9819 1.0355 0.3805, 0.9503 1.0651 0.3721, -0.9804 1.0355 0.3805, -0.9742 1.0341 0.3877, -0.9666 1.0323 0.3931, -0.9579 1.0303 0.3965, -0.9572 1.0323 0.3965, -0.9528 1.0368 0.3965, -0.9546 1.0356 0.3965, -0.9508 1.0375 0.3965, -0.9847 1.0364 0.3721, -0.9819 1.0442 0.3721, -0.9775 1.0512 0.3721, -0.9717 1.0571 0.3721, -0.9647 1.0615 0.3721, -0.9569 1.0642 0.3721, -0.9487 1.0651 0.3721, -0.9487 1.0376 0.3965, -0.9631 1.0397 0.3931, -0.9602 1.0426 0.3931, -0.9567 1.0448 0.3931, -0.9528 1.0461 0.3931, -0.9652 1.0362 0.3931, -0.9561 1.0341 0.3965, -0.9487 1.0377 0.3965, -0.9487 1.0465 0.3931, -0.9487 1.0466 0.3931, -0.9487 1.0543 0.3878, -0.9723 1.0396 0.3877, -0.9692 1.0446 0.3877, -0.965 1.0487 0.3877, -0.9601 1.0518 0.3877, -0.9545 1.0538 0.3877, -0.978 1.0423 0.3805, -0.9741 1.0485 0.3805, -0.969 1.0536 0.3805, -0.9628 1.0575 0.3805, -0.9559 1.0599 0.3805, -0.9487 1.0544 0.3877, -0.9487 1.0606 0.3807, -0.9487 1.0607 0.3805, -0.9487 1.065 0.3723
            ]
        }
        coordIndex [
            0,1,2,-1,2,1,3,-1,4,5,6,-1,6,5,7,-1,8,9,10,-1,10,9,11,-1,12,13,14,-1,14,13,15,-1,14,15,16,-1,17,18,19,-1,15,20,16,-1,16,20,17,-1,16,17,21,-1,21,17,19,-1,22,23,24,-1,25,26,27,-1,27,26,28,-1,29,30,26,-1,26,30,31,-1,32,27,33,-1,33,27,28,-1,33,28,34,-1,34,28,35,-1,36,37,25,-1,25,37,38,-1,25,38,26,-1,26,38,39,-1,26,39,29,-1,31,40,26,-1,26,40,41,-1,26,41,42,-1,43,44,45,-1,46,47,27,-1,45,46,43,-1,43,46,27,-1,43,27,48,-1,48,27,32,-1,48,32,49,-1,49,32,50,-1,51,52,47,-1,47,52,53,-1,53,54,47,-1,47,54,55,-1,47,55,56,-1,24,27,22,-1,22,27,47,-1,22,47,57,-1,57,47,56,-1,58,59,60,-1,60,59,61,-1,60,61,62,-1,62,61,63,-1,64,61,65,-1,65,61,66,-1,64,67,61,-1,61,67,68,-1,61,68,63,-1,60,62,69,-1,69,62,70,-1,69,70,71,-1,71,70,72,-1,71,72,37,-1,37,72,38,-1,73,15,13,-1,74,23,22,-1,13,75,73,-1,73,75,74,-1,73,74,76,-1,76,74,22,-1,77,78,79,-1,79,78,80,-1,52,51,80,-1,80,51,81,-1,80,81,82,-1,83,49,50,-1,42,41,84,-1,84,41,78,-1,84,78,85,-1,85,78,77,-1,85,77,35,-1,35,77,34,-1,50,79,83,-1,83,79,80,-1,83,80,86,-1,86,80,82,-1,86,82,44,-1,44,82,45,-1,7,5,87,-1,87,5,88,-1,61,59,89,-1,89,59,90,-1,89,90,91,-1,3,1,91,-1,91,1,92,-1,91,92,89,-1,89,92,87,-1,89,87,93,-1,93,87,88,-1,93,88,94,-1,14,16,95,-1,95,16,93,-1,95,93,96,-1,96,93,94,-1,96,94,9,-1,9,94,11,-1,97,98,99,-1,99,98,100,-1,99,100,101,-1,101,102,99,-1,99,102,103,-1,99,103,104,-1,103,105,104,-1,104,105,106,-1,104,106,107,-1,107,108,104,-1,104,108,109,-1,104,109,110,-1,110,111,104,-1,104,111,112,-1,104,112,113,-1,113,112,114,-1,114,115,113,-1,113,115,116,-1,113,116,117,-1,118,119,120,-1,120,119,113,-1,120,113,121,-1,121,113,117,-1,118,122,119,-1,119,122,123,-1,119,123,99,-1,99,123,124,-1,99,124,97,-1,125,126,93,-1,93,126,127,-1,93,127,89,-1,89,127,128,-1,129,130,76,-1,76,130,131,-1,76,131,73,-1,73,131,132,-1,133,134,70,-1,70,134,135,-1,70,135,72,-1,72,135,136,-1,137,138,78,-1,78,138,139,-1,78,139,80,-1,80,139,140,-1,137,78,41,-1,137,41,141,-1,141,41,40,-1,141,40,142,-1,142,40,31,-1,142,31,143,-1,143,31,144,-1,144,31,30,-1,144,30,145,-1,145,30,146,-1,146,30,29,-1,146,29,147,-1,147,29,148,-1,148,29,39,-1,148,39,149,-1,38,72,39,-1,39,72,136,-1,39,136,149,-1,129,76,22,-1,129,22,150,-1,150,22,57,-1,150,57,151,-1,151,57,56,-1,151,56,152,-1,152,56,153,-1,153,56,55,-1,153,55,154,-1,154,55,155,-1,155,55,54,-1,155,54,156,-1,156,54,157,-1,157,54,53,-1,157,53,158,-1,52,80,53,-1,53,80,140,-1,53,140,158,-1,146,147,159,-1,159,147,148,-1,159,148,135,-1,135,148,149,-1,135,149,136,-1,159,160,146,-1,146,160,161,-1,146,161,145,-1,145,161,162,-1,162,163,145,-1,145,163,164,-1,145,164,144,-1,144,164,165,-1,144,165,143,-1,143,165,166,-1,143,166,142,-1,142,166,167,-1,142,167,141,-1,141,167,138,-1,141,138,137,-1,139,138,168,-1,168,138,169,-1,168,169,170,-1,170,169,171,-1,170,171,172,-1,172,171,173,-1,172,173,174,-1,174,173,175,-1,174,175,176,-1,176,175,177,-1,176,177,178,-1,178,177,179,-1,178,179,180,-1,180,179,181,-1,180,181,182,-1,182,181,183,-1,182,183,184,-1,184,183,185,-1,184,185,186,-1,185,187,186,-1,186,187,99,-1,186,99,104,-1,155,156,188,-1,188,156,157,-1,188,157,139,-1,139,157,158,-1,139,158,140,-1,188,189,155,-1,155,189,190,-1,155,190,154,-1,154,190,191,-1,191,192,154,-1,154,192,193,-1,154,193,153,-1,153,193,194,-1,153,194,152,-1,152,194,195,-1,152,195,151,-1,151,195,196,-1,151,196,150,-1,150,196,130,-1,150,130,129,-1,133,70,62,-1,133,62,197,-1,197,62,63,-1,197,63,198,-1,198,63,68,-1,198,68,199,-1,199,68,200,-1,200,68,67,-1,200,67,201,-1,201,67,202,-1,202,67,64,-1,202,64,203,-1,203,64,204,-1,204,64,65,-1,204,65,205,-1,205,65,206,-1,206,65,66,-1,206,66,207,-1,61,89,66,-1,66,89,128,-1,66,128,207,-1,208,209,210,-1,211,212,213,-1,99,214,215,-1,216,214,99,-1,213,212,99,-1,217,99,212,-1,218,160,159,-1,160,218,161,-1,161,218,219,-1,161,219,162,-1,162,219,220,-1,162,220,163,-1,163,220,221,-1,163,221,164,-1,164,221,165,-1,165,221,222,-1,165,222,166,-1,166,222,167,-1,167,222,169,-1,167,169,138,-1,187,216,99,-1,223,224,211,-1,211,224,225,-1,211,225,212,-1,212,225,226,-1,212,226,217,-1,227,215,228,-1,228,215,214,-1,228,214,229,-1,229,214,216,-1,229,216,230,-1,187,185,216,-1,216,185,183,-1,216,183,230,-1,230,183,181,-1,230,181,179,-1,210,227,231,-1,231,227,228,-1,231,228,232,-1,232,228,229,-1,232,229,233,-1,233,229,230,-1,233,230,234,-1,234,230,179,-1,235,236,237,-1,237,236,208,-1,208,210,237,-1,237,210,231,-1,237,231,238,-1,238,231,232,-1,238,232,239,-1,239,232,233,-1,239,233,240,-1,240,233,234,-1,240,234,241,-1,209,223,210,-1,210,223,211,-1,210,211,227,-1,227,211,213,-1,227,213,215,-1,215,213,99,-1,235,218,242,-1,242,218,159,-1,242,159,135,-1,179,177,234,-1,234,177,175,-1,234,175,241,-1,241,175,173,-1,241,173,171,-1,235,237,218,-1,218,237,238,-1,218,238,219,-1,219,238,239,-1,219,239,220,-1,220,239,240,-1,220,240,221,-1,221,240,241,-1,221,241,222,-1,222,241,171,-1,222,171,169,-1,174,176,243,-1,244,245,246,-1,104,247,248,-1,249,247,104,-1,246,245,104,-1,186,104,245,-1,250,189,188,-1,189,250,190,-1,190,250,251,-1,190,251,191,-1,191,251,252,-1,191,252,192,-1,192,252,253,-1,192,253,193,-1,193,253,194,-1,194,253,254,-1,194,254,195,-1,195,254,196,-1,196,254,255,-1,196,255,130,-1,256,249,104,-1,178,180,244,-1,244,180,182,-1,244,182,245,-1,245,182,184,-1,245,184,186,-1,257,248,258,-1,258,248,247,-1,258,247,259,-1,259,247,249,-1,259,249,260,-1,256,261,249,-1,249,261,262,-1,249,262,260,-1,260,262,263,-1,260,263,264,-1,243,257,265,-1,265,257,258,-1,265,258,266,-1,266,258,259,-1,266,259,267,-1,267,259,260,-1,267,260,268,-1,268,260,264,-1,170,172,269,-1,269,172,174,-1,174,243,269,-1,269,243,265,-1,269,265,270,-1,270,265,266,-1,270,266,271,-1,271,266,267,-1,271,267,272,-1,272,267,268,-1,272,268,273,-1,176,178,243,-1,243,178,244,-1,243,244,257,-1,257,244,246,-1,257,246,248,-1,248,246,104,-1,170,250,168,-1,168,250,188,-1,168,188,139,-1,264,274,268,-1,268,274,275,-1,268,275,273,-1,273,275,276,-1,273,276,277,-1,170,269,250,-1,250,269,270,-1,250,270,251,-1,251,270,271,-1,251,271,252,-1,252,271,272,-1,252,272,253,-1,253,272,273,-1,253,273,254,-1,254,273,277,-1,254,277,255,-1,125,93,16,-1,125,16,278,-1,278,16,21,-1,278,21,279,-1,279,21,19,-1,279,19,280,-1,280,19,281,-1,281,19,18,-1,281,18,282,-1,282,18,283,-1,283,18,17,-1,283,17,284,-1,284,17,285,-1,285,17,20,-1,285,20,286,-1,15,73,20,-1,20,73,132,-1,20,132,286,-1,134,133,287,-1,287,133,197,-1,287,197,288,-1,288,197,198,-1,288,198,289,-1,289,198,199,-1,289,199,290,-1,290,199,200,-1,290,200,291,-1,291,200,201,-1,291,201,292,-1,292,201,202,-1,292,202,293,-1,293,202,203,-1,293,203,294,-1,294,203,204,-1,294,204,295,-1,295,204,205,-1,295,205,296,-1,296,205,206,-1,296,206,297,-1,297,206,207,-1,297,207,127,-1,127,207,128,-1,135,134,242,-1,242,134,298,-1,242,298,235,-1,235,298,299,-1,235,299,236,-1,236,299,300,-1,236,300,208,-1,208,300,301,-1,208,301,209,-1,209,301,302,-1,209,302,223,-1,223,302,303,-1,223,303,224,-1,224,303,304,-1,224,304,225,-1,225,304,305,-1,225,305,226,-1,226,305,306,-1,226,306,217,-1,306,307,217,-1,217,307,119,-1,217,119,99,-1,131,130,308,-1,308,130,255,-1,308,255,309,-1,309,255,277,-1,309,277,310,-1,310,277,276,-1,310,276,311,-1,311,276,275,-1,311,275,312,-1,312,275,274,-1,312,274,313,-1,313,274,264,-1,313,264,314,-1,314,264,263,-1,314,263,315,-1,315,263,262,-1,315,262,316,-1,316,262,261,-1,316,261,317,-1,261,256,317,-1,317,256,104,-1,317,104,113,-1,132,131,286,-1,286,131,318,-1,286,318,285,-1,285,318,319,-1,285,319,284,-1,284,319,320,-1,284,320,283,-1,320,321,283,-1,283,321,322,-1,283,322,282,-1,126,125,323,-1,323,125,278,-1,323,278,324,-1,324,278,279,-1,324,279,325,-1,325,279,280,-1,325,280,326,-1,326,280,281,-1,326,281,327,-1,327,281,282,-1,327,282,328,-1,328,282,322,-1,329,330,331,-1,332,333,334,-1,335,336,337,-1,119,338,339,-1,340,338,119,-1,337,336,119,-1,341,119,336,-1,297,342,296,-1,296,342,343,-1,296,343,295,-1,295,343,294,-1,294,343,344,-1,294,344,293,-1,293,344,292,-1,292,344,345,-1,292,345,291,-1,291,345,290,-1,290,345,346,-1,290,346,289,-1,289,346,288,-1,288,346,347,-1,288,347,287,-1,287,347,298,-1,287,298,134,-1,307,340,119,-1,348,349,335,-1,335,349,350,-1,335,350,336,-1,336,350,351,-1,336,351,341,-1,352,339,353,-1,353,339,338,-1,353,338,354,-1,354,338,340,-1,354,340,355,-1,333,348,334,-1,334,348,335,-1,334,335,356,-1,356,335,337,-1,356,337,357,-1,357,337,119,-1,307,306,340,-1,340,306,305,-1,340,305,355,-1,355,305,304,-1,355,304,303,-1,358,352,359,-1,359,352,353,-1,359,353,360,-1,360,353,354,-1,360,354,361,-1,361,354,355,-1,361,355,362,-1,362,355,303,-1,331,358,363,-1,363,358,359,-1,363,359,364,-1,364,359,360,-1,364,360,365,-1,365,360,361,-1,365,361,366,-1,366,361,362,-1,366,362,367,-1,330,332,331,-1,331,332,334,-1,331,334,358,-1,358,334,356,-1,358,356,352,-1,352,356,357,-1,352,357,339,-1,339,357,119,-1,297,127,342,-1,342,127,368,-1,342,368,329,-1,303,302,362,-1,362,302,301,-1,362,301,367,-1,367,301,300,-1,367,300,299,-1,329,331,342,-1,342,331,363,-1,342,363,343,-1,343,363,364,-1,343,364,344,-1,344,364,365,-1,344,365,345,-1,345,365,366,-1,345,366,346,-1,346,366,367,-1,346,367,347,-1,347,367,299,-1,347,299,298,-1,309,310,369,-1,311,312,370,-1,371,372,373,-1,113,374,375,-1,376,374,113,-1,373,372,113,-1,317,113,372,-1,318,377,319,-1,319,377,378,-1,319,378,320,-1,320,378,321,-1,321,378,379,-1,321,379,322,-1,322,379,328,-1,328,379,380,-1,328,380,327,-1,327,380,326,-1,326,380,381,-1,326,381,325,-1,325,381,324,-1,324,381,382,-1,324,382,323,-1,323,382,383,-1,323,383,126,-1,384,376,113,-1,313,314,371,-1,371,314,315,-1,371,315,372,-1,372,315,316,-1,372,316,317,-1,385,375,386,-1,386,375,374,-1,386,374,387,-1,387,374,376,-1,387,376,388,-1,312,313,370,-1,370,313,371,-1,370,371,389,-1,389,371,373,-1,389,373,390,-1,390,373,113,-1,384,391,376,-1,376,391,392,-1,376,392,388,-1,388,392,393,-1,388,393,394,-1,395,385,396,-1,396,385,386,-1,396,386,397,-1,397,386,387,-1,397,387,398,-1,398,387,388,-1,398,388,399,-1,399,388,394,-1,369,395,400,-1,400,395,396,-1,400,396,401,-1,401,396,397,-1,401,397,402,-1,402,397,398,-1,402,398,403,-1,403,398,399,-1,403,399,404,-1,310,311,369,-1,369,311,370,-1,369,370,395,-1,395,370,389,-1,395,389,385,-1,385,389,390,-1,385,390,375,-1,375,390,113,-1,318,131,377,-1,377,131,308,-1,377,308,309,-1,394,405,399,-1,399,405,406,-1,399,406,404,-1,404,406,407,-1,404,407,408,-1,309,369,377,-1,377,369,400,-1,377,400,378,-1,378,400,401,-1,378,401,379,-1,379,401,402,-1,379,402,380,-1,380,402,403,-1,380,403,381,-1,381,403,404,-1,381,404,382,-1,382,404,408,-1,382,408,383,-1,127,126,368,-1,368,126,383,-1,368,383,329,-1,329,383,408,-1,329,408,330,-1,330,408,407,-1,330,407,332,-1,332,407,406,-1,332,406,333,-1,333,406,405,-1,333,405,348,-1,348,405,394,-1,348,394,349,-1,349,394,393,-1,349,393,350,-1,350,393,392,-1,350,392,351,-1,351,392,391,-1,351,391,341,-1,391,384,341,-1,341,384,113,-1,341,113,119,-1,
        ]
    }
}
Shape{
    appearance Appearance {
        material  Material 	{
            diffuseColor 0.8509803921568627 0.8509803921568627 0.8509803921568627
            specularColor 0.4235294117647059 0.4235294117647059 0.4235294117647059
            ambientIntensity 0.851
            transparency 0.0
            shininess 0.5
        }
    }
    geometry IndexedFaceSet {
        ccw TRUE
        solid FALSE
        coord DEF co Coordinate {
            point [
                -0.7571 -0.8925 0.3898, -0.7571 -0.8925 0.3976, -0.7594 -0.8746 0.3898, -0.7594 -0.8746 0.3976, -0.7663 -0.858 0.3898, -0.7663 -0.858 0.3976, -0.7773 -0.8438 0.3898, -0.7773 -0.8438 0.3976, -0.7915 -0.8328 0.3898, -0.7915 -0.8328 0.3976, -0.8082 -0.8259 0.3898, -0.8082 -0.8259 0.3976, -0.826 -0.8236 0.3898, -0.826 -0.8236 0.3976, -0.8438 -0.8259 0.3898, -0.8438 -0.8259 0.3976, -0.8604 -0.8328 0.3898, -0.8604 -0.8328 0.3976, -0.8747 -0.8438 0.3898, -0.8747 -0.8438 0.3976, -0.8857 -0.858 0.3898, -0.8857 -0.858 0.3976, -0.8925 -0.8746 0.3898, -0.8925 -0.8746 0.3976, -0.8949 -0.8925 0.3898, -0.8949 -0.8925 0.3976, -0.8925 -0.9103 0.3898, -0.8925 -0.9103 0.3976, -0.8857 -0.9269 0.3898, -0.8857 -0.9269 0.3976, -0.8747 -0.9412 0.3898, -0.8747 -0.9412 0.3976, -0.8604 -0.9521 0.3898, -0.8604 -0.9521 0.3976, -0.8438 -0.959 0.3898, -0.8438 -0.959 0.3976, -0.826 -0.9614 0.3898, -0.826 -0.9614 0.3976, -0.8082 -0.959 0.3898, -0.8082 -0.959 0.3976, -0.7915 -0.9521 0.3898, -0.7915 -0.9521 0.3976, -0.7773 -0.9412 0.3898, -0.7773 -0.9412 0.3976, -0.7663 -0.9269 0.3898, -0.7663 -0.9269 0.3976, -0.7594 -0.9103 0.3898, -0.7594 -0.9103 0.3976, -0.826 -0.8925 0.3898, -0.8189 -1.1024 0.0787, -0.8189 -1.2008 0.0787, -0.6811 -1.1024 0.0787, -0.6811 -1.2008 0.0787, -0.8189 -0.9646 0.0039, -0.8189 -0.9646 0.0, -0.8189 -1.1024 0.0039, -0.8189 -1.2008 0.0, -0.6811 -0.9646 0.0, -0.6811 -0.9646 0.0039, -0.6811 -1.1024 0.0039, -0.6811 -1.2008 0.0, -0.3189 -1.1024 0.0787, -0.3189 -1.2008 0.0787, -0.1811 -1.1024 0.0787, -0.1811 -1.2008 0.0787, -0.3189 -0.9646 0.0039, -0.3189 -0.9646 0.0, -0.3189 -1.1024 0.0039, -0.3189 -1.2008 0.0, -0.1811 -0.9646 0.0, -0.1811 -0.9646 0.0039, -0.1811 -1.1024 0.0039, -0.1811 -1.2008 0.0, 0.1811 -1.1024 0.0787, 0.1811 -1.2008 0.0787, 0.3189 -1.1024 0.0787, 0.3189 -1.2008 0.0787, 0.1811 -0.9646 0.0039, 0.1811 -0.9646 0.0, 0.1811 -1.1024 0.0039, 0.1811 -1.2008 0.0, 0.3189 -0.9646 0.0, 0.3189 -0.9646 0.0039, 0.3189 -1.1024 0.0039, 0.3189 -1.2008 0.0, 0.6811 -1.1024 0.0787, 0.6811 -1.2008 0.0787, 0.8189 -1.1024 0.0787, 0.8189 -1.2008 0.0787, 0.6811 -0.9646 0.0039, 0.6811 -0.9646 0.0, 0.6811 -1.1024 0.0039, 0.6811 -1.2008 0.0, 0.8189 -0.9646 0.0, 0.8189 -0.9646 0.0039, 0.8189 -1.1024 0.0039, 0.8189 -1.2008 0.0, -0.6811 1.1024 0.0787, -0.6811 1.2008 0.0787, -0.8189 1.1024 0.0787, -0.8189 1.2008 0.0787, -0.8189 0.051 0.0, -0.8189 0.051 0.0039, -0.8189 1.1024 0.0039, -0.8189 1.2008 0.0, -0.6811 0.9646 0.0039, -0.6811 0.9646 0.0, -0.6811 1.1024 0.0039, -0.6811 1.2008 0.0, -0.1811 1.1024 0.0787, -0.1811 1.2008 0.0787, -0.3189 1.1024 0.0787, -0.3189 1.2008 0.0787, -0.3189 0.9646 0.0, -0.3189 0.9646 0.0039, -0.3189 1.1024 0.0039, -0.3189 1.2008 0.0, -0.1811 0.9646 0.0039, -0.1811 0.9646 0.0, -0.1811 1.1024 0.0039, -0.1811 1.2008 0.0, 0.3189 1.1024 0.0787, 0.3189 1.2008 0.0787, 0.1811 1.1024 0.0787, 0.1811 1.2008 0.0787, 0.1811 0.9646 0.0, 0.1811 0.9646 0.0039, 0.1811 1.1024 0.0039, 0.1811 1.2008 0.0, 0.3189 0.9646 0.0039, 0.3189 0.9646 0.0, 0.3189 1.1024 0.0039, 0.3189 1.2008 0.0, 0.8189 1.1024 0.0787, 0.8189 1.2008 0.0787, 0.6811 1.1024 0.0787, 0.6811 1.2008 0.0787, 0.6811 0.9646 0.0, 0.6811 0.9646 0.0039, 0.6811 1.1024 0.0039, 0.6811 1.2008 0.0, 0.8189 0.051 0.0039, 0.8189 0.051 0.0, 0.8189 1.1024 0.0039, 0.8189 1.2008 0.0, 1.0244 -0.0277 0.0787, 1.0441 -0.0277 0.0787, 1.0244 0.051 0.0787, 1.0441 0.051 0.0787, -1.0228 0.051 0.0787, -1.0441 0.051 0.0787, -1.0228 -0.0277 0.0787, -1.0441 -0.0277 0.0787, 0.0276 0.9646 0.0, -1.0228 0.051 0.0039, -1.0441 0.051 0.0, -1.0441 -0.0277 0.0, -0.8189 -0.0277 0.0, -0.8189 -0.0277 0.0039, -1.0228 -0.0277 0.0039, -0.8189 -0.4626 0.0, -0.8189 -0.4626 0.0039, -0.8189 -0.0285 0.0, 0.8189 -0.4626 0.0, 0.8189 -0.4626 0.0039, 0.0276 -0.4626 0.0, 0.8189 -0.0277 0.0, 0.8189 -0.0277 0.0039, 0.8189 -0.0285 0.0, 1.0244 -0.0277 0.0039, 1.0441 -0.0277 0.0, 1.0441 0.051 0.0, 1.0244 0.051 0.0039
            ]
        }
        coordIndex [
            0,1,2,-1,2,1,3,-1,2,3,4,-1,4,3,5,-1,4,5,6,-1,6,5,7,-1,6,7,8,-1,8,7,9,-1,8,9,10,-1,10,9,11,-1,10,11,12,-1,12,11,13,-1,12,13,14,-1,14,13,15,-1,14,15,16,-1,16,15,17,-1,16,17,18,-1,18,17,19,-1,18,19,20,-1,20,19,21,-1,20,21,22,-1,22,21,23,-1,22,23,24,-1,24,23,25,-1,24,25,26,-1,26,25,27,-1,26,27,28,-1,28,27,29,-1,28,29,30,-1,30,29,31,-1,30,31,32,-1,32,31,33,-1,32,33,34,-1,34,33,35,-1,34,35,36,-1,36,35,37,-1,36,37,38,-1,38,37,39,-1,38,39,40,-1,40,39,41,-1,40,41,42,-1,42,41,43,-1,42,43,44,-1,44,43,45,-1,44,45,46,-1,46,45,47,-1,46,47,0,-1,0,47,1,-1,44,46,48,-1,48,46,0,-1,48,0,2,-1,38,40,48,-1,48,40,42,-1,48,42,44,-1,32,34,48,-1,48,34,36,-1,48,36,38,-1,26,28,48,-1,48,28,30,-1,48,30,32,-1,20,22,48,-1,48,22,24,-1,48,24,26,-1,14,16,48,-1,48,16,18,-1,48,18,20,-1,8,10,48,-1,48,10,12,-1,48,12,14,-1,2,4,48,-1,48,4,6,-1,48,6,8,-1,49,50,51,-1,51,50,52,-1,53,54,55,-1,55,54,56,-1,55,56,49,-1,49,56,50,-1,57,58,59,-1,51,52,59,-1,59,52,60,-1,59,60,57,-1,52,50,60,-1,60,50,56,-1,57,54,58,-1,58,54,53,-1,57,60,54,-1,54,60,56,-1,61,62,63,-1,63,62,64,-1,65,66,67,-1,67,66,68,-1,67,68,61,-1,61,68,62,-1,69,70,71,-1,63,64,71,-1,71,64,72,-1,71,72,69,-1,64,62,72,-1,72,62,68,-1,69,66,70,-1,70,66,65,-1,69,72,66,-1,66,72,68,-1,73,74,75,-1,75,74,76,-1,77,78,79,-1,79,78,80,-1,79,80,73,-1,73,80,74,-1,81,82,83,-1,75,76,83,-1,83,76,84,-1,83,84,81,-1,76,74,84,-1,84,74,80,-1,81,78,82,-1,82,78,77,-1,81,84,78,-1,78,84,80,-1,85,86,87,-1,87,86,88,-1,89,90,91,-1,91,90,92,-1,91,92,85,-1,85,92,86,-1,93,94,95,-1,87,88,95,-1,95,88,96,-1,95,96,93,-1,88,86,96,-1,96,86,92,-1,93,90,94,-1,94,90,89,-1,93,96,90,-1,90,96,92,-1,97,98,99,-1,99,98,100,-1,101,102,103,-1,99,100,103,-1,103,100,104,-1,103,104,101,-1,105,106,107,-1,107,106,108,-1,107,108,97,-1,97,108,98,-1,100,98,104,-1,104,98,108,-1,109,110,111,-1,111,110,112,-1,113,114,115,-1,111,112,115,-1,115,112,116,-1,115,116,113,-1,117,118,119,-1,119,118,120,-1,119,120,109,-1,109,120,110,-1,112,110,116,-1,116,110,120,-1,121,122,123,-1,123,122,124,-1,125,126,127,-1,123,124,127,-1,127,124,128,-1,127,128,125,-1,129,130,131,-1,131,130,132,-1,131,132,121,-1,121,132,122,-1,124,122,128,-1,128,122,132,-1,133,134,135,-1,135,134,136,-1,137,138,139,-1,135,136,139,-1,139,136,140,-1,139,140,137,-1,141,142,143,-1,143,142,144,-1,143,144,133,-1,133,144,134,-1,136,134,140,-1,140,134,144,-1,145,146,147,-1,147,146,148,-1,149,150,151,-1,151,150,152,-1,114,113,105,-1,105,113,106,-1,118,117,153,-1,153,117,126,-1,153,126,125,-1,138,137,129,-1,129,137,130,-1,102,101,154,-1,154,101,155,-1,154,155,149,-1,149,155,150,-1,152,150,156,-1,156,150,155,-1,157,158,159,-1,151,152,159,-1,159,152,156,-1,159,156,157,-1,160,161,162,-1,162,161,158,-1,162,158,157,-1,163,164,165,-1,165,164,161,-1,165,161,160,-1,166,167,168,-1,168,167,164,-1,168,164,163,-1,167,166,169,-1,169,166,170,-1,169,170,145,-1,145,170,146,-1,148,146,171,-1,171,146,170,-1,142,141,172,-1,147,148,172,-1,172,148,171,-1,172,171,142,-1,
        ]
    }
}
Shape{
    appearance Appearance {
        material  Material 	{
            diffuseColor 0.25098039215686274 0.25098039215686274 0.25098039215686274
            specularColor 0.12549019607843137 0.12549019607843137 0.12549019607843137
            ambientIntensity 0.251
            transparency 0.0
            shininess 0.5
        }
    }
    geometry IndexedFaceSet {
        ccw TRUE
        solid FALSE
        coord DEF co Coordinate {
            point [
                -0.1472 0.0507 0.0039, -0.1779 -0.028 0.0039, -0.1472 0.0507 0.0, -0.1779 -0.028 0.0, -0.1664 -0.028 0.0039, -0.1664 -0.028 0.0, -0.1584 -0.006 0.0039, -0.1584 -0.006 0.0, -0.1259 -0.006 0.0039, -0.1259 -0.006 0.0, -0.1184 -0.028 0.0039, -0.1184 -0.028 0.0, -0.1069 -0.028 0.0039, -0.1069 -0.028 0.0, -0.1366 0.0507 0.0039, -0.1366 0.0507 0.0, -0.1286 0.0027 0.0039, -0.1549 0.0027 0.0039, -0.1403 0.0356 0.0039, -0.1411 0.0383 0.0039, -0.1416 0.0411 0.0039, -0.1418 0.0411 0.0039, -0.1423 0.0383 0.0039, -0.143 0.0356 0.0039, -0.1286 0.0027 0.0, -0.1549 0.0027 0.0, -0.1403 0.0356 0.0, -0.1411 0.0383 0.0, -0.1416 0.0411 0.0, -0.1418 0.0411 0.0, -0.1423 0.0383 0.0, -0.143 0.0356 0.0, -0.0591 -0.028 0.0039, -0.0377 -0.028 0.0039, -0.0591 -0.028 0.0, -0.0377 -0.028 0.0, -0.0377 0.0507 0.0039, -0.0377 0.0507 0.0, -0.0599 0.0507 0.0039, -0.0599 0.0507 0.0, -0.1011 0.0123 0.0039, -0.1011 0.0123 0.0, -0.1005 0.0197 0.0, -0.1005 0.0197 0.0039, -0.0984 0.0275 0.0, -0.0984 0.0275 0.0039, -0.0948 0.0343 0.0, -0.0948 0.0343 0.0039, -0.0892 0.0404 0.0, -0.0892 0.0404 0.0039, -0.0891 0.0405 0.0, -0.0891 0.0405 0.0039, -0.0805 0.0462 0.0, -0.0805 0.0462 0.0039, -0.0713 0.0495 0.0, -0.0713 0.0495 0.0039, -0.0689 -0.0272 0.0, -0.0689 -0.0272 0.0039, -0.078 -0.0245 0.0, -0.078 -0.0245 0.0039, -0.0862 -0.0197 0.0, -0.0862 -0.0197 0.0039, -0.0927 -0.0135 0.0, -0.0927 -0.0135 0.0039, -0.0972 -0.0065 0.0, -0.0972 -0.0065 0.0039, -0.1 0.0018 0.0, -0.1 0.0018 0.0039, -0.0853 0.031 0.0039, -0.0815 0.0351 0.0039, -0.0757 0.0388 0.0039, -0.0692 0.0411 0.0039, -0.0599 0.0421 0.0039, -0.0483 0.0421 0.0039, -0.0483 -0.0194 0.0039, -0.0595 -0.0194 0.0039, -0.0678 -0.0186 0.0039, -0.0744 -0.0166 0.0039, -0.0798 -0.0134 0.0039, -0.0842 -0.009 0.0039, -0.0875 -0.0036 0.0039, -0.0898 0.0038 0.0039, -0.0905 0.0121 0.0039, -0.0899 0.0199 0.0039, -0.088 0.0262 0.0039, -0.0599 0.0421 0.0, -0.0483 0.0421 0.0, -0.0692 0.0411 0.0, -0.0757 0.0388 0.0, -0.0815 0.0351 0.0, -0.0853 0.031 0.0, -0.088 0.0262 0.0, -0.0899 0.0199 0.0, -0.0905 0.0121 0.0, -0.0898 0.0038 0.0, -0.0875 -0.0036 0.0, -0.0842 -0.009 0.0, -0.0798 -0.0134 0.0, -0.0744 -0.0166 0.0, -0.0678 -0.0186 0.0, -0.0595 -0.0194 0.0, -0.0483 -0.0194 0.0, -0.0224 -0.0194 0.0039, -0.0224 -0.028 0.0039, -0.0224 -0.0194 0.0, -0.0224 -0.028 0.0, 0.0199 -0.028 0.0039, 0.0199 -0.028 0.0, 0.0199 0.0507 0.0039, 0.0199 0.0507 0.0, -0.0204 0.0507 0.0039, -0.0204 0.0507 0.0, -0.0204 0.0421 0.0039, -0.0204 0.0421 0.0, 0.0093 0.0421 0.0039, 0.0093 0.0421 0.0, 0.0093 0.0161 0.0039, 0.0093 0.0161 0.0, -0.0185 0.0161 0.0039, -0.0185 0.0161 0.0, -0.0185 0.0075 0.0039, -0.0185 0.0075 0.0, 0.0093 0.0075 0.0039, 0.0093 0.0075 0.0, 0.0093 -0.0194 0.0039, 0.0093 -0.0194 0.0, 0.0353 -0.0153 0.0039, 0.0353 -0.024 0.0039, 0.0353 -0.0153 0.0, 0.0353 -0.024 0.0, 0.0436 -0.0274 0.0039, 0.0569 -0.029 0.0039, 0.0569 -0.029 0.0, 0.0548 -0.029 0.0, 0.0548 -0.029 0.0039, 0.0516 -0.0285 0.0, 0.0436 -0.0274 0.0, 0.0938 0.0098 0.0039, 0.0938 0.0098 0.0, 0.0931 0.0007 0.0, 0.0931 0.0007 0.0039, 0.0907 -0.0076 0.0, 0.0907 -0.0076 0.0039, 0.0865 -0.0151 0.0, 0.0865 -0.0151 0.0039, 0.0806 -0.0213 0.0, 0.0806 -0.0213 0.0039, 0.0743 -0.0254 0.0, 0.0743 -0.0254 0.0039, 0.0666 -0.028 0.0, 0.0666 -0.028 0.0039, 0.0616 -0.0285 0.0, 0.0538 0.0517 0.0039, 0.0538 0.0517 0.0, 0.0617 0.051 0.0, 0.0617 0.051 0.0039, 0.0705 0.0485 0.0, 0.0705 0.0485 0.0039, 0.0779 0.0442 0.0, 0.0779 0.0442 0.0039, 0.0851 0.0373 0.0, 0.0851 0.0373 0.0039, 0.0897 0.03 0.0, 0.0897 0.03 0.0039, 0.0927 0.021 0.0, 0.0927 0.021 0.0039, 0.0353 0.0485 0.0039, 0.0353 0.0485 0.0, 0.0444 0.051 0.0, 0.0444 0.051 0.0039, 0.0353 0.038 0.0039, 0.0353 0.038 0.0, 0.0537 0.043 0.0039, 0.0537 0.043 0.0, 0.0441 0.0418 0.0, 0.0441 0.0418 0.0039, 0.0833 0.0105 0.0039, 0.0833 0.0105 0.0, 0.0829 0.0166 0.0, 0.0829 0.0166 0.0039, 0.0808 0.025 0.0, 0.0808 0.025 0.0039, 0.0775 0.0311 0.0, 0.0775 0.0311 0.0039, 0.0728 0.0364 0.0, 0.0728 0.0364 0.0039, 0.0673 0.04 0.0, 0.0673 0.04 0.0039, 0.0614 0.0421 0.0, 0.0614 0.0421 0.0039, 0.0555 -0.0204 0.0039, 0.0555 -0.0204 0.0, 0.0628 -0.0195 0.0, 0.0628 -0.0195 0.0039, 0.0685 -0.0174 0.0, 0.0685 -0.0174 0.0039, 0.0734 -0.0142 0.0, 0.0734 -0.0142 0.0039, 0.0771 -0.0103 0.0, 0.0771 -0.0103 0.0039, 0.0803 -0.0048 0.0, 0.0803 -0.0048 0.0039, 0.0825 0.002 0.0, 0.0825 0.002 0.0039, 0.0367 -0.0161 0.0, 0.0367 -0.0161 0.0039, 0.045 -0.0192 0.0, 0.045 -0.0192 0.0039, 0.1006 -0.0194 0.0039, 0.1006 -0.028 0.0039, 0.1006 -0.0194 0.0, 0.1006 -0.028 0.0, 0.1409 -0.028 0.0039, 0.1409 -0.028 0.0, 0.1409 0.0507 0.0039, 0.1409 0.0507 0.0, 0.1303 0.0507 0.0039, 0.1303 0.0507 0.0, 0.1303 -0.0194 0.0039, 0.1303 -0.0194 0.0
            ]
        }
        coordIndex [
            0,1,2,-1,2,1,3,-1,1,4,3,-1,3,4,5,-1,4,6,5,-1,5,6,7,-1,6,8,7,-1,7,8,9,-1,8,10,9,-1,9,10,11,-1,10,12,11,-1,11,12,13,-1,12,14,13,-1,13,14,15,-1,14,0,15,-1,15,0,2,-1,16,8,17,-1,17,8,6,-1,18,14,16,-1,16,14,12,-1,16,12,8,-1,8,12,10,-1,18,19,14,-1,14,19,20,-1,14,20,0,-1,0,20,21,-1,0,21,22,-1,22,23,0,-1,0,23,17,-1,0,17,1,-1,1,17,6,-1,1,6,4,-1,16,17,24,-1,24,17,25,-1,18,16,26,-1,26,16,24,-1,18,26,27,-1,18,27,19,-1,19,27,28,-1,19,28,20,-1,21,20,29,-1,29,20,28,-1,21,29,30,-1,21,30,22,-1,22,30,31,-1,22,31,23,-1,17,23,25,-1,25,23,31,-1,32,33,34,-1,34,33,35,-1,33,36,35,-1,35,36,37,-1,36,38,37,-1,37,38,39,-1,40,41,42,-1,40,42,43,-1,43,42,44,-1,43,44,45,-1,45,44,46,-1,45,46,47,-1,47,46,48,-1,47,48,49,-1,49,48,50,-1,49,50,51,-1,51,50,52,-1,51,52,53,-1,53,52,54,-1,53,54,55,-1,55,54,39,-1,55,39,38,-1,32,34,56,-1,32,56,57,-1,57,56,58,-1,57,58,59,-1,59,58,60,-1,59,60,61,-1,61,60,62,-1,61,62,63,-1,63,62,64,-1,63,64,65,-1,65,64,66,-1,65,66,67,-1,67,66,41,-1,67,41,40,-1,45,47,68,-1,68,47,49,-1,68,49,69,-1,69,49,51,-1,69,51,70,-1,70,51,53,-1,70,53,71,-1,71,53,55,-1,71,55,72,-1,72,55,38,-1,72,38,73,-1,73,38,36,-1,73,36,74,-1,74,36,33,-1,74,33,75,-1,75,33,32,-1,75,32,76,-1,76,32,57,-1,76,57,77,-1,77,57,59,-1,77,59,78,-1,78,59,61,-1,78,61,79,-1,79,61,63,-1,79,63,80,-1,80,63,65,-1,80,65,81,-1,81,65,67,-1,81,67,82,-1,82,67,40,-1,82,40,83,-1,83,40,43,-1,83,43,84,-1,84,43,45,-1,84,45,68,-1,72,73,85,-1,85,73,86,-1,72,85,87,-1,72,87,71,-1,71,87,88,-1,71,88,70,-1,70,88,89,-1,70,89,69,-1,69,89,90,-1,69,90,68,-1,68,90,91,-1,68,91,84,-1,84,91,92,-1,84,92,83,-1,83,92,93,-1,83,93,82,-1,82,93,94,-1,82,94,81,-1,81,94,95,-1,81,95,80,-1,80,95,96,-1,80,96,79,-1,79,96,97,-1,79,97,78,-1,78,97,98,-1,78,98,77,-1,77,98,99,-1,77,99,76,-1,76,99,100,-1,76,100,75,-1,74,75,101,-1,101,75,100,-1,73,74,86,-1,86,74,101,-1,102,103,104,-1,104,103,105,-1,103,106,105,-1,105,106,107,-1,106,108,107,-1,107,108,109,-1,108,110,109,-1,109,110,111,-1,110,112,111,-1,111,112,113,-1,112,114,113,-1,113,114,115,-1,114,116,115,-1,115,116,117,-1,116,118,117,-1,117,118,119,-1,118,120,119,-1,119,120,121,-1,120,122,121,-1,121,122,123,-1,122,124,123,-1,123,124,125,-1,124,102,125,-1,125,102,104,-1,106,103,102,-1,102,124,106,-1,106,124,122,-1,106,122,108,-1,112,110,114,-1,114,110,108,-1,114,108,116,-1,116,108,122,-1,116,122,118,-1,118,122,120,-1,126,127,128,-1,128,127,129,-1,129,127,130,-1,131,132,133,-1,131,133,134,-1,134,133,135,-1,134,135,130,-1,130,135,136,-1,130,136,129,-1,137,138,139,-1,137,139,140,-1,140,139,141,-1,140,141,142,-1,142,141,143,-1,142,143,144,-1,144,143,145,-1,144,145,146,-1,146,145,147,-1,146,147,148,-1,148,147,149,-1,148,149,150,-1,150,149,131,-1,131,149,151,-1,131,151,132,-1,152,153,154,-1,152,154,155,-1,155,154,156,-1,155,156,157,-1,157,156,158,-1,157,158,159,-1,159,158,160,-1,159,160,161,-1,161,160,162,-1,161,162,163,-1,163,162,164,-1,163,164,165,-1,165,164,138,-1,165,138,137,-1,166,167,168,-1,166,168,169,-1,169,168,153,-1,169,153,152,-1,166,170,167,-1,167,170,171,-1,172,173,174,-1,172,174,175,-1,175,174,171,-1,175,171,170,-1,176,177,178,-1,176,178,179,-1,179,178,180,-1,179,180,181,-1,181,180,182,-1,181,182,183,-1,183,182,184,-1,183,184,185,-1,185,184,186,-1,185,186,187,-1,187,186,188,-1,187,188,189,-1,189,188,173,-1,189,173,172,-1,190,191,192,-1,190,192,193,-1,193,192,194,-1,193,194,195,-1,195,194,196,-1,195,196,197,-1,197,196,198,-1,197,198,199,-1,199,198,200,-1,199,200,201,-1,201,200,202,-1,201,202,203,-1,203,202,177,-1,203,177,176,-1,126,128,204,-1,126,204,205,-1,205,204,206,-1,205,206,207,-1,207,206,191,-1,207,191,190,-1,193,131,190,-1,190,131,134,-1,190,134,207,-1,207,134,130,-1,207,130,205,-1,205,130,127,-1,205,127,126,-1,170,166,175,-1,175,166,169,-1,175,169,172,-1,172,169,152,-1,172,152,189,-1,189,152,155,-1,189,155,187,-1,187,155,157,-1,187,157,185,-1,185,157,159,-1,185,159,183,-1,183,159,161,-1,183,161,181,-1,181,161,163,-1,181,163,179,-1,179,163,165,-1,179,165,176,-1,176,165,137,-1,176,137,203,-1,203,137,140,-1,203,140,201,-1,201,140,142,-1,201,142,199,-1,199,142,144,-1,199,144,197,-1,197,144,146,-1,197,146,195,-1,195,146,148,-1,195,148,193,-1,193,148,150,-1,193,150,131,-1,208,209,210,-1,210,209,211,-1,209,212,211,-1,211,212,213,-1,212,214,213,-1,213,214,215,-1,214,216,215,-1,215,216,217,-1,216,218,217,-1,217,218,219,-1,218,208,219,-1,219,208,210,-1,216,214,218,-1,218,214,212,-1,218,212,208,-1,208,212,209,-1,
        ]
    }
}
Shape{
    appearance Appearance {
        material  Material 	{
            diffuseColor 0.8509803921568627 0.8509803921568627 0.8509803921568627
            specularColor 0.4235294117647059 0.4235294117647059 0.4235294117647059
            ambientIntensity 0.851
            transparency 0.0
            shininess 0.5
        }
    }
    geometry IndexedFaceSet {
        ccw TRUE
        solid FALSE
        coord DEF co Coordinate {
            point [
                -0.1286 0.0027 0.0, -0.1549 0.0027 0.0, -0.1403 0.0356 0.0, -0.143 0.0356 0.0, -0.1411 0.0383 0.0, -0.1423 0.0383 0.0, -0.1416 0.0411 0.0, -0.1418 0.0411 0.0, -0.0483 0.0421 0.0, -0.0483 -0.0194 0.0, -0.0599 0.0421 0.0, -0.0595 -0.0194 0.0, -0.0678 -0.0186 0.0, -0.0905 0.0121 0.0, -0.0899 0.0199 0.0, -0.088 0.0262 0.0, -0.0692 0.0411 0.0, -0.0744 -0.0166 0.0, -0.0798 -0.0134 0.0, -0.0842 -0.009 0.0, -0.0875 -0.0036 0.0, -0.0898 0.0038 0.0, -0.0853 0.031 0.0, -0.0815 0.0351 0.0, -0.0757 0.0388 0.0
            ]
        }
        coordIndex [
            0,1,2,-1,2,1,3,-1,2,3,4,-1,4,3,5,-1,4,5,6,-1,6,5,7,-1,8,9,10,-1,10,9,11,-1,10,11,12,-1,13,14,10,-1,10,14,15,-1,10,15,16,-1,12,17,10,-1,10,17,18,-1,10,18,19,-1,19,20,10,-1,10,20,21,-1,10,21,13,-1,22,23,15,-1,15,23,24,-1,15,24,16,-1,
        ]
    }
}